<mxfile host="app.diagrams.net" modified="2023-02-02T10:45:53.479Z" agent="5.0 (Windows NT 10.0; Win64; x64) AppleWebKit/537.36 (KHTML, like Gecko) Chrome/109.0.0.0 Safari/537.36" etag="XvarsC4DuTj81NXwoMZE" version="20.8.13" type="github" pages="5">
  <diagram id="QrX-EznrX8NcuX-Z5qwo" name="UseCase">
    <mxGraphModel dx="2625" dy="1353" grid="1" gridSize="10" guides="1" tooltips="1" connect="1" arrows="1" fold="1" page="1" pageScale="1" pageWidth="827" pageHeight="1169" math="0" shadow="0">
      <root>
        <mxCell id="0" />
        <mxCell id="1" parent="0" />
        <mxCell id="k7uYUYKEQTDLJ0aiQLSv-1" value="" style="whiteSpace=wrap;html=1;aspect=fixed;" parent="1" vertex="1">
          <mxGeometry x="220" y="60" width="450" height="450" as="geometry" />
        </mxCell>
        <mxCell id="k7uYUYKEQTDLJ0aiQLSv-32" style="edgeStyle=none;rounded=0;orthogonalLoop=1;jettySize=auto;html=1;" parent="1" source="k7uYUYKEQTDLJ0aiQLSv-2" target="k7uYUYKEQTDLJ0aiQLSv-31" edge="1">
          <mxGeometry relative="1" as="geometry" />
        </mxCell>
        <mxCell id="k7uYUYKEQTDLJ0aiQLSv-2" value="User" style="shape=umlActor;verticalLabelPosition=bottom;verticalAlign=top;html=1;outlineConnect=0;" parent="1" vertex="1">
          <mxGeometry x="750" y="80" width="30" height="60" as="geometry" />
        </mxCell>
        <mxCell id="k7uYUYKEQTDLJ0aiQLSv-54" style="edgeStyle=none;rounded=0;orthogonalLoop=1;jettySize=auto;html=1;" parent="1" source="k7uYUYKEQTDLJ0aiQLSv-3" target="k7uYUYKEQTDLJ0aiQLSv-35" edge="1">
          <mxGeometry relative="1" as="geometry" />
        </mxCell>
        <mxCell id="k7uYUYKEQTDLJ0aiQLSv-3" value="OpenAi" style="shape=umlActor;verticalLabelPosition=bottom;verticalAlign=top;html=1;outlineConnect=0;" parent="1" vertex="1">
          <mxGeometry x="740" y="330" width="30" height="60" as="geometry" />
        </mxCell>
        <mxCell id="k7uYUYKEQTDLJ0aiQLSv-10" style="rounded=0;orthogonalLoop=1;jettySize=auto;html=1;" parent="1" source="k7uYUYKEQTDLJ0aiQLSv-7" target="k7uYUYKEQTDLJ0aiQLSv-2" edge="1">
          <mxGeometry relative="1" as="geometry" />
        </mxCell>
        <mxCell id="k7uYUYKEQTDLJ0aiQLSv-7" value="&lt;div&gt;Ask an environment &amp;amp; a personnality&lt;/div&gt;" style="ellipse;whiteSpace=wrap;html=1;fillColor=#fff2cc;strokeColor=#d6b656;" parent="1" vertex="1">
          <mxGeometry x="246" y="80" width="90" height="60" as="geometry" />
        </mxCell>
        <mxCell id="k7uYUYKEQTDLJ0aiQLSv-31" value="&lt;div&gt;Send context informations&lt;/div&gt;" style="ellipse;whiteSpace=wrap;html=1;fillColor=#f8cecc;strokeColor=#b85450;" parent="1" vertex="1">
          <mxGeometry x="361" y="120" width="104" height="80" as="geometry" />
        </mxCell>
        <mxCell id="k7uYUYKEQTDLJ0aiQLSv-35" value="character details" style="ellipse;whiteSpace=wrap;html=1;fillColor=#f8cecc;strokeColor=#b85450;" parent="1" vertex="1">
          <mxGeometry x="320" y="410" width="104" height="80" as="geometry" />
        </mxCell>
        <mxCell id="k7uYUYKEQTDLJ0aiQLSv-46" style="edgeStyle=none;rounded=0;orthogonalLoop=1;jettySize=auto;html=1;entryX=0.5;entryY=0.5;entryDx=0;entryDy=0;entryPerimeter=0;" parent="1" source="k7uYUYKEQTDLJ0aiQLSv-43" target="k7uYUYKEQTDLJ0aiQLSv-3" edge="1">
          <mxGeometry relative="1" as="geometry" />
        </mxCell>
        <mxCell id="k7uYUYKEQTDLJ0aiQLSv-43" value="Ask characters details" style="ellipse;whiteSpace=wrap;html=1;fillColor=#fff2cc;strokeColor=#d6b656;" parent="1" vertex="1">
          <mxGeometry x="433" y="230" width="90" height="60" as="geometry" />
        </mxCell>
        <mxCell id="k7uYUYKEQTDLJ0aiQLSv-91" style="edgeStyle=none;rounded=0;orthogonalLoop=1;jettySize=auto;html=1;dashed=1;" parent="1" source="k7uYUYKEQTDLJ0aiQLSv-47" target="k7uYUYKEQTDLJ0aiQLSv-43" edge="1">
          <mxGeometry relative="1" as="geometry" />
        </mxCell>
        <mxCell id="k7uYUYKEQTDLJ0aiQLSv-47" value="Set environnement &amp;amp; personnality" style="ellipse;whiteSpace=wrap;html=1;fillColor=#f8cecc;strokeColor=#b85450;" parent="1" vertex="1">
          <mxGeometry x="416.5" y="320" width="123" height="60" as="geometry" />
        </mxCell>
        <mxCell id="k7uYUYKEQTDLJ0aiQLSv-82" value="" style="whiteSpace=wrap;html=1;aspect=fixed;" parent="1" vertex="1">
          <mxGeometry x="160" y="584" width="540" height="540" as="geometry" />
        </mxCell>
        <mxCell id="k7uYUYKEQTDLJ0aiQLSv-84" value="Api" style="shape=umlActor;verticalLabelPosition=bottom;verticalAlign=top;html=1;outlineConnect=0;" parent="1" vertex="1">
          <mxGeometry x="100" y="650" width="30" height="60" as="geometry" />
        </mxCell>
        <mxCell id="k7uYUYKEQTDLJ0aiQLSv-98" style="edgeStyle=none;rounded=0;orthogonalLoop=1;jettySize=auto;html=1;entryX=1;entryY=0.5;entryDx=0;entryDy=0;" parent="1" source="k7uYUYKEQTDLJ0aiQLSv-86" target="k7uYUYKEQTDLJ0aiQLSv-97" edge="1">
          <mxGeometry relative="1" as="geometry" />
        </mxCell>
        <mxCell id="k7uYUYKEQTDLJ0aiQLSv-86" value="User" style="shape=umlActor;verticalLabelPosition=bottom;verticalAlign=top;html=1;outlineConnect=0;" parent="1" vertex="1">
          <mxGeometry x="760" y="650" width="30" height="60" as="geometry" />
        </mxCell>
        <mxCell id="k7uYUYKEQTDLJ0aiQLSv-87" value="Personnality Settings" style="text;html=1;align=center;verticalAlign=middle;resizable=0;points=[];autosize=1;strokeColor=none;fillColor=none;" parent="1" vertex="1">
          <mxGeometry x="395" y="60" width="140" height="30" as="geometry" />
        </mxCell>
        <mxCell id="k7uYUYKEQTDLJ0aiQLSv-90" value="Accounting" style="text;html=1;align=center;verticalAlign=middle;resizable=0;points=[];autosize=1;strokeColor=none;fillColor=none;" parent="1" vertex="1">
          <mxGeometry x="395" y="590" width="80" height="30" as="geometry" />
        </mxCell>
        <mxCell id="k7uYUYKEQTDLJ0aiQLSv-92" value="Sending" style="ellipse;whiteSpace=wrap;html=1;fillColor=#f8cecc;strokeColor=#b85450;" parent="1" vertex="1">
          <mxGeometry x="10" y="10" width="60" height="40" as="geometry" />
        </mxCell>
        <mxCell id="k7uYUYKEQTDLJ0aiQLSv-93" value="Request" style="ellipse;whiteSpace=wrap;html=1;fillColor=#fff2cc;strokeColor=#d6b656;" parent="1" vertex="1">
          <mxGeometry x="90" y="10" width="60" height="40" as="geometry" />
        </mxCell>
        <mxCell id="k7uYUYKEQTDLJ0aiQLSv-138" style="edgeStyle=none;rounded=0;orthogonalLoop=1;jettySize=auto;html=1;dashed=1;strokeWidth=1;" parent="1" source="k7uYUYKEQTDLJ0aiQLSv-96" target="k7uYUYKEQTDLJ0aiQLSv-97" edge="1">
          <mxGeometry relative="1" as="geometry" />
        </mxCell>
        <mxCell id="k7uYUYKEQTDLJ0aiQLSv-139" value="if not exist" style="edgeLabel;html=1;align=center;verticalAlign=middle;resizable=0;points=[];" parent="k7uYUYKEQTDLJ0aiQLSv-138" vertex="1" connectable="0">
          <mxGeometry x="-0.1946" relative="1" as="geometry">
            <mxPoint x="35" y="-8" as="offset" />
          </mxGeometry>
        </mxCell>
        <mxCell id="k7uYUYKEQTDLJ0aiQLSv-96" value="Create account&amp;nbsp;" style="ellipse;whiteSpace=wrap;html=1;fillColor=#f8cecc;strokeColor=#b85450;" parent="1" vertex="1">
          <mxGeometry x="368" y="824" width="124" height="60" as="geometry" />
        </mxCell>
        <mxCell id="k7uYUYKEQTDLJ0aiQLSv-99" style="edgeStyle=none;rounded=0;orthogonalLoop=1;jettySize=auto;html=1;" parent="1" source="k7uYUYKEQTDLJ0aiQLSv-97" target="k7uYUYKEQTDLJ0aiQLSv-84" edge="1">
          <mxGeometry relative="1" as="geometry" />
        </mxCell>
        <mxCell id="k7uYUYKEQTDLJ0aiQLSv-97" value="Login to user account" style="ellipse;whiteSpace=wrap;html=1;fillColor=#f8cecc;strokeColor=#b85450;" parent="1" vertex="1">
          <mxGeometry x="371" y="660" width="104" height="80" as="geometry" />
        </mxCell>
        <mxCell id="k7uYUYKEQTDLJ0aiQLSv-104" style="edgeStyle=none;rounded=0;orthogonalLoop=1;jettySize=auto;html=1;" parent="1" source="k7uYUYKEQTDLJ0aiQLSv-103" target="k7uYUYKEQTDLJ0aiQLSv-86" edge="1">
          <mxGeometry relative="1" as="geometry" />
        </mxCell>
        <mxCell id="k7uYUYKEQTDLJ0aiQLSv-109" style="edgeStyle=none;rounded=0;orthogonalLoop=1;jettySize=auto;html=1;entryX=1;entryY=0.5;entryDx=0;entryDy=0;strokeWidth=1;endArrow=none;endFill=0;" parent="1" source="k7uYUYKEQTDLJ0aiQLSv-103" target="k7uYUYKEQTDLJ0aiQLSv-106" edge="1">
          <mxGeometry relative="1" as="geometry" />
        </mxCell>
        <mxCell id="k7uYUYKEQTDLJ0aiQLSv-110" style="edgeStyle=none;rounded=0;orthogonalLoop=1;jettySize=auto;html=1;entryX=1;entryY=0.5;entryDx=0;entryDy=0;strokeWidth=1;endArrow=none;endFill=0;" parent="1" source="k7uYUYKEQTDLJ0aiQLSv-103" target="k7uYUYKEQTDLJ0aiQLSv-107" edge="1">
          <mxGeometry relative="1" as="geometry" />
        </mxCell>
        <mxCell id="k7uYUYKEQTDLJ0aiQLSv-111" style="edgeStyle=none;rounded=0;orthogonalLoop=1;jettySize=auto;html=1;entryX=1;entryY=0.5;entryDx=0;entryDy=0;strokeWidth=1;endArrow=none;endFill=0;" parent="1" source="k7uYUYKEQTDLJ0aiQLSv-103" target="k7uYUYKEQTDLJ0aiQLSv-108" edge="1">
          <mxGeometry relative="1" as="geometry" />
        </mxCell>
        <mxCell id="k7uYUYKEQTDLJ0aiQLSv-103" value="Logged user" style="shape=umlActor;verticalLabelPosition=bottom;verticalAlign=top;html=1;outlineConnect=0;" parent="1" vertex="1">
          <mxGeometry x="760" y="850" width="30" height="60" as="geometry" />
        </mxCell>
        <mxCell id="k7uYUYKEQTDLJ0aiQLSv-106" value="Select dialogue" style="ellipse;whiteSpace=wrap;html=1;fillColor=#f8cecc;strokeColor=#b85450;" parent="1" vertex="1">
          <mxGeometry x="535" y="884" width="104" height="50" as="geometry" />
        </mxCell>
        <mxCell id="k7uYUYKEQTDLJ0aiQLSv-107" value="Edit dialogue context" style="ellipse;whiteSpace=wrap;html=1;fillColor=#f8cecc;strokeColor=#b85450;" parent="1" vertex="1">
          <mxGeometry x="535" y="940" width="104" height="50" as="geometry" />
        </mxCell>
        <mxCell id="k7uYUYKEQTDLJ0aiQLSv-108" value="Chat with AI" style="ellipse;whiteSpace=wrap;html=1;fillColor=#f8cecc;strokeColor=#b85450;" parent="1" vertex="1">
          <mxGeometry x="535" y="1000" width="104" height="50" as="geometry" />
        </mxCell>
        <mxCell id="k7uYUYKEQTDLJ0aiQLSv-112" value="" style="whiteSpace=wrap;html=1;aspect=fixed;" parent="1" vertex="1">
          <mxGeometry x="936" y="70" width="540" height="540" as="geometry" />
        </mxCell>
        <mxCell id="k7uYUYKEQTDLJ0aiQLSv-148" style="edgeStyle=none;rounded=0;orthogonalLoop=1;jettySize=auto;html=1;entryX=0.5;entryY=0;entryDx=0;entryDy=0;strokeWidth=1;" parent="1" source="k7uYUYKEQTDLJ0aiQLSv-114" target="k7uYUYKEQTDLJ0aiQLSv-147" edge="1">
          <mxGeometry relative="1" as="geometry" />
        </mxCell>
        <mxCell id="vmchFfp9jmTMULwyPHl--2" style="edgeStyle=none;rounded=0;orthogonalLoop=1;jettySize=auto;html=1;entryX=1;entryY=0.5;entryDx=0;entryDy=0;endArrow=classic;endFill=1;" parent="1" source="k7uYUYKEQTDLJ0aiQLSv-114" target="k7uYUYKEQTDLJ0aiQLSv-127" edge="1">
          <mxGeometry relative="1" as="geometry" />
        </mxCell>
        <mxCell id="k7uYUYKEQTDLJ0aiQLSv-114" value="Logged user" style="shape=umlActor;verticalLabelPosition=bottom;verticalAlign=top;html=1;outlineConnect=0;" parent="1" vertex="1">
          <mxGeometry x="1500" y="80" width="30" height="60" as="geometry" />
        </mxCell>
        <mxCell id="k7uYUYKEQTDLJ0aiQLSv-115" style="edgeStyle=none;rounded=0;orthogonalLoop=1;jettySize=auto;html=1;" parent="1" source="k7uYUYKEQTDLJ0aiQLSv-116" target="k7uYUYKEQTDLJ0aiQLSv-125" edge="1">
          <mxGeometry relative="1" as="geometry" />
        </mxCell>
        <mxCell id="k7uYUYKEQTDLJ0aiQLSv-116" value="OpenAi" style="shape=umlActor;verticalLabelPosition=bottom;verticalAlign=top;html=1;outlineConnect=0;" parent="1" vertex="1">
          <mxGeometry x="1490" y="330" width="30" height="60" as="geometry" />
        </mxCell>
        <mxCell id="k7uYUYKEQTDLJ0aiQLSv-132" style="edgeStyle=none;rounded=0;orthogonalLoop=1;jettySize=auto;html=1;entryX=0.5;entryY=0.5;entryDx=0;entryDy=0;entryPerimeter=0;strokeWidth=1;endArrow=none;endFill=0;exitX=0.5;exitY=0;exitDx=0;exitDy=0;startArrow=classic;startFill=1;" parent="1" source="k7uYUYKEQTDLJ0aiQLSv-141" target="k7uYUYKEQTDLJ0aiQLSv-114" edge="1">
          <mxGeometry relative="1" as="geometry">
            <mxPoint x="1153.8972327497572" y="127.48645881268999" as="sourcePoint" />
          </mxGeometry>
        </mxCell>
        <mxCell id="vmchFfp9jmTMULwyPHl--1" style="rounded=0;orthogonalLoop=1;jettySize=auto;html=1;entryX=0;entryY=0.5;entryDx=0;entryDy=0;endArrow=none;endFill=0;dashed=1;exitX=0;exitY=0.5;exitDx=0;exitDy=0;" parent="1" source="k7uYUYKEQTDLJ0aiQLSv-141" target="k7uYUYKEQTDLJ0aiQLSv-134" edge="1">
          <mxGeometry relative="1" as="geometry">
            <mxPoint x="1146.4817415764119" y="150.7175234739451" as="sourcePoint" />
          </mxGeometry>
        </mxCell>
        <mxCell id="k7uYUYKEQTDLJ0aiQLSv-125" value="Compile a message" style="ellipse;whiteSpace=wrap;html=1;fillColor=#f8cecc;strokeColor=#b85450;" parent="1" vertex="1">
          <mxGeometry x="1300" y="410" width="104" height="80" as="geometry" />
        </mxCell>
        <mxCell id="k7uYUYKEQTDLJ0aiQLSv-126" style="edgeStyle=none;rounded=0;orthogonalLoop=1;jettySize=auto;html=1;entryX=0.5;entryY=0.5;entryDx=0;entryDy=0;entryPerimeter=0;" parent="1" source="k7uYUYKEQTDLJ0aiQLSv-127" target="k7uYUYKEQTDLJ0aiQLSv-116" edge="1">
          <mxGeometry relative="1" as="geometry" />
        </mxCell>
        <mxCell id="k7uYUYKEQTDLJ0aiQLSv-127" value="Refer characters details" style="ellipse;whiteSpace=wrap;html=1;fillColor=#fff2cc;strokeColor=#d6b656;" parent="1" vertex="1">
          <mxGeometry x="1161" y="230" width="90" height="60" as="geometry" />
        </mxCell>
        <mxCell id="k7uYUYKEQTDLJ0aiQLSv-130" value="Chatting" style="text;html=1;align=center;verticalAlign=middle;resizable=0;points=[];autosize=1;strokeColor=none;fillColor=none;" parent="1" vertex="1">
          <mxGeometry x="1180" y="60" width="70" height="30" as="geometry" />
        </mxCell>
        <mxCell id="k7uYUYKEQTDLJ0aiQLSv-134" value="Create chat" style="ellipse;whiteSpace=wrap;html=1;fillColor=#f8cecc;strokeColor=#b85450;" parent="1" vertex="1">
          <mxGeometry x="950" y="110" width="104" height="60" as="geometry" />
        </mxCell>
        <mxCell id="k7uYUYKEQTDLJ0aiQLSv-145" value="" style="edgeStyle=none;rounded=0;orthogonalLoop=1;jettySize=auto;html=1;strokeWidth=1;dashed=1;" parent="1" source="k7uYUYKEQTDLJ0aiQLSv-141" target="k7uYUYKEQTDLJ0aiQLSv-143" edge="1">
          <mxGeometry relative="1" as="geometry" />
        </mxCell>
        <mxCell id="k7uYUYKEQTDLJ0aiQLSv-141" value="Open chat" style="ellipse;whiteSpace=wrap;html=1;fillColor=#f8cecc;strokeColor=#b85450;" parent="1" vertex="1">
          <mxGeometry x="1020" y="200" width="104" height="60" as="geometry" />
        </mxCell>
        <mxCell id="k7uYUYKEQTDLJ0aiQLSv-143" value="Wait a message" style="ellipse;whiteSpace=wrap;html=1;fillColor=#f8cecc;strokeColor=#b85450;" parent="1" vertex="1">
          <mxGeometry x="1020" y="360" width="104" height="60" as="geometry" />
        </mxCell>
        <mxCell id="k7uYUYKEQTDLJ0aiQLSv-150" style="edgeStyle=none;rounded=0;orthogonalLoop=1;jettySize=auto;html=1;strokeWidth=1;dashed=1;" parent="1" source="k7uYUYKEQTDLJ0aiQLSv-147" target="k7uYUYKEQTDLJ0aiQLSv-143" edge="1">
          <mxGeometry relative="1" as="geometry" />
        </mxCell>
        <mxCell id="k7uYUYKEQTDLJ0aiQLSv-147" value="Send message" style="ellipse;whiteSpace=wrap;html=1;fillColor=#f8cecc;strokeColor=#b85450;" parent="1" vertex="1">
          <mxGeometry x="1050" y="520" width="104" height="60" as="geometry" />
        </mxCell>
        <mxCell id="k7uYUYKEQTDLJ0aiQLSv-151" style="edgeStyle=none;rounded=0;orthogonalLoop=1;jettySize=auto;html=1;exitX=0.5;exitY=0;exitDx=0;exitDy=0;dashed=1;strokeWidth=1;" parent="1" source="k7uYUYKEQTDLJ0aiQLSv-147" target="k7uYUYKEQTDLJ0aiQLSv-147" edge="1">
          <mxGeometry relative="1" as="geometry" />
        </mxCell>
        <mxCell id="k7uYUYKEQTDLJ0aiQLSv-152" style="edgeStyle=none;rounded=0;orthogonalLoop=1;jettySize=auto;html=1;exitX=0.5;exitY=1;exitDx=0;exitDy=0;dashed=1;strokeWidth=1;endArrow=none;endFill=0;" parent="1" source="k7uYUYKEQTDLJ0aiQLSv-97" target="k7uYUYKEQTDLJ0aiQLSv-97" edge="1">
          <mxGeometry relative="1" as="geometry" />
        </mxCell>
      </root>
    </mxGraphModel>
  </diagram>
  <diagram id="-RU7c4OC5KgXimEVVfSU" name="Class">
    <mxGraphModel dx="1313" dy="676" grid="1" gridSize="10" guides="1" tooltips="1" connect="1" arrows="1" fold="1" page="1" pageScale="1" pageWidth="827" pageHeight="1169" math="0" shadow="0">
      <root>
        <mxCell id="0" />
        <mxCell id="1" parent="0" />
        <mxCell id="kolIQZ4a0cQggph-2vq8-1" style="edgeStyle=orthogonalEdgeStyle;rounded=0;orthogonalLoop=1;jettySize=auto;html=1;entryX=0;entryY=0.5;entryDx=0;entryDy=0;endArrow=none;endFill=0;" edge="1" parent="1" source="kolIQZ4a0cQggph-2vq8-2" target="kolIQZ4a0cQggph-2vq8-15">
          <mxGeometry relative="1" as="geometry" />
        </mxCell>
        <mxCell id="kolIQZ4a0cQggph-2vq8-2" value="Context" style="swimlane;fontStyle=1;align=center;verticalAlign=middle;childLayout=stackLayout;horizontal=1;startSize=29;horizontalStack=0;resizeParent=1;resizeParentMax=0;resizeLast=0;collapsible=0;marginBottom=0;html=1;" vertex="1" parent="1">
          <mxGeometry x="320" y="167.5" width="170" height="120" as="geometry" />
        </mxCell>
        <mxCell id="kolIQZ4a0cQggph-2vq8-3" value="+ Id : int" style="text;html=1;strokeColor=none;fillColor=none;align=left;verticalAlign=middle;spacingLeft=4;spacingRight=4;overflow=hidden;rotatable=0;points=[[0,0.5],[1,0.5]];portConstraint=eastwest;" vertex="1" parent="kolIQZ4a0cQggph-2vq8-2">
          <mxGeometry y="29" width="170" height="25" as="geometry" />
        </mxCell>
        <mxCell id="kolIQZ4a0cQggph-2vq8-4" value="+ getHistory()&lt;br&gt;+ getCharacter()&lt;br&gt;+ getEnvironement()" style="text;html=1;strokeColor=default;fillColor=none;align=left;verticalAlign=middle;spacingLeft=4;spacingRight=4;overflow=hidden;rotatable=0;points=[[0,0.5],[1,0.5]];portConstraint=eastwest;" vertex="1" parent="kolIQZ4a0cQggph-2vq8-2">
          <mxGeometry y="54" width="170" height="66" as="geometry" />
        </mxCell>
        <mxCell id="kolIQZ4a0cQggph-2vq8-5" value="Dialogue" style="swimlane;fontStyle=1;align=center;verticalAlign=middle;childLayout=stackLayout;horizontal=1;startSize=29;horizontalStack=0;resizeParent=1;resizeParentMax=0;resizeLast=0;collapsible=0;marginBottom=0;html=1;" vertex="1" parent="1">
          <mxGeometry x="410" y="490" width="140" height="129" as="geometry" />
        </mxCell>
        <mxCell id="kolIQZ4a0cQggph-2vq8-6" value="+ userMsg : str" style="text;html=1;strokeColor=none;fillColor=none;align=left;verticalAlign=middle;spacingLeft=4;spacingRight=4;overflow=hidden;rotatable=0;points=[[0,0.5],[1,0.5]];portConstraint=eastwest;" vertex="1" parent="kolIQZ4a0cQggph-2vq8-5">
          <mxGeometry y="29" width="140" height="25" as="geometry" />
        </mxCell>
        <mxCell id="kolIQZ4a0cQggph-2vq8-7" value="+ aiMsg: str" style="text;html=1;strokeColor=none;fillColor=none;align=left;verticalAlign=middle;spacingLeft=4;spacingRight=4;overflow=hidden;rotatable=0;points=[[0,0.5],[1,0.5]];portConstraint=eastwest;" vertex="1" parent="kolIQZ4a0cQggph-2vq8-5">
          <mxGeometry y="54" width="140" height="25" as="geometry" />
        </mxCell>
        <mxCell id="kolIQZ4a0cQggph-2vq8-8" value="stereotype property 1" style="text;html=1;strokeColor=none;fillColor=none;align=left;verticalAlign=middle;spacingLeft=4;spacingRight=4;overflow=hidden;rotatable=0;points=[[0,0.5],[1,0.5]];portConstraint=eastwest;" vertex="1" parent="kolIQZ4a0cQggph-2vq8-5">
          <mxGeometry y="79" width="140" height="25" as="geometry" />
        </mxCell>
        <mxCell id="kolIQZ4a0cQggph-2vq8-9" value="stereotype property 1" style="text;html=1;strokeColor=default;fillColor=none;align=left;verticalAlign=middle;spacingLeft=4;spacingRight=4;overflow=hidden;rotatable=0;points=[[0,0.5],[1,0.5]];portConstraint=eastwest;" vertex="1" parent="kolIQZ4a0cQggph-2vq8-5">
          <mxGeometry y="104" width="140" height="25" as="geometry" />
        </mxCell>
        <mxCell id="kolIQZ4a0cQggph-2vq8-10" style="edgeStyle=orthogonalEdgeStyle;rounded=0;orthogonalLoop=1;jettySize=auto;html=1;entryX=0;entryY=0.5;entryDx=0;entryDy=0;endArrow=none;endFill=0;" edge="1" parent="1" source="kolIQZ4a0cQggph-2vq8-11" target="kolIQZ4a0cQggph-2vq8-3">
          <mxGeometry relative="1" as="geometry" />
        </mxCell>
        <mxCell id="kolIQZ4a0cQggph-2vq8-11" value="Character" style="swimlane;fontStyle=1;align=center;verticalAlign=middle;childLayout=stackLayout;horizontal=1;startSize=29;horizontalStack=0;resizeParent=1;resizeParentMax=0;resizeLast=0;collapsible=0;marginBottom=0;html=1;" vertex="1" parent="1">
          <mxGeometry x="108" y="30" width="140" height="54" as="geometry" />
        </mxCell>
        <mxCell id="kolIQZ4a0cQggph-2vq8-12" value="+ name : str" style="text;html=1;strokeColor=none;fillColor=none;align=left;verticalAlign=middle;spacingLeft=4;spacingRight=4;overflow=hidden;rotatable=0;points=[[0,0.5],[1,0.5]];portConstraint=eastwest;" vertex="1" parent="kolIQZ4a0cQggph-2vq8-11">
          <mxGeometry y="29" width="140" height="25" as="geometry" />
        </mxCell>
        <mxCell id="5GnD2kiRcE-ZmtlTLCr0-1" style="edgeStyle=orthogonalEdgeStyle;rounded=0;orthogonalLoop=1;jettySize=auto;html=1;entryX=1;entryY=0.5;entryDx=0;entryDy=0;endArrow=none;endFill=0;" edge="1" parent="1" source="kolIQZ4a0cQggph-2vq8-14" target="kolIQZ4a0cQggph-2vq8-34">
          <mxGeometry relative="1" as="geometry" />
        </mxCell>
        <mxCell id="kolIQZ4a0cQggph-2vq8-14" value="Intelligence" style="swimlane;fontStyle=1;align=center;verticalAlign=middle;childLayout=stackLayout;horizontal=1;startSize=29;horizontalStack=0;resizeParent=1;resizeParentMax=0;resizeLast=0;collapsible=0;marginBottom=0;html=1;" vertex="1" parent="1">
          <mxGeometry x="648" y="200" width="140" height="110" as="geometry" />
        </mxCell>
        <mxCell id="kolIQZ4a0cQggph-2vq8-15" value="+ Id : int" style="text;html=1;strokeColor=none;fillColor=none;align=left;verticalAlign=middle;spacingLeft=4;spacingRight=4;overflow=hidden;rotatable=0;points=[[0,0.5],[1,0.5]];portConstraint=eastwest;" vertex="1" parent="kolIQZ4a0cQggph-2vq8-14">
          <mxGeometry y="29" width="140" height="25" as="geometry" />
        </mxCell>
        <mxCell id="kolIQZ4a0cQggph-2vq8-16" value="+ connectToApi()&lt;br&gt;+getContext()" style="text;html=1;strokeColor=default;fillColor=default;align=left;verticalAlign=middle;spacingLeft=4;spacingRight=4;overflow=hidden;rotatable=0;points=[[0,0.5],[1,0.5]];portConstraint=eastwest;" vertex="1" parent="kolIQZ4a0cQggph-2vq8-14">
          <mxGeometry y="54" width="140" height="56" as="geometry" />
        </mxCell>
        <mxCell id="kolIQZ4a0cQggph-2vq8-17" value="User" style="swimlane;fontStyle=1;align=center;verticalAlign=middle;childLayout=stackLayout;horizontal=1;startSize=29;horizontalStack=0;resizeParent=1;resizeParentMax=0;resizeLast=0;collapsible=0;marginBottom=0;html=1;" vertex="1" parent="1">
          <mxGeometry x="80" y="389" width="140" height="170" as="geometry" />
        </mxCell>
        <mxCell id="kolIQZ4a0cQggph-2vq8-18" value="- Id : int" style="text;html=1;strokeColor=none;fillColor=none;align=left;verticalAlign=middle;spacingLeft=4;spacingRight=4;overflow=hidden;rotatable=0;points=[[0,0.5],[1,0.5]];portConstraint=eastwest;" vertex="1" parent="kolIQZ4a0cQggph-2vq8-17">
          <mxGeometry y="29" width="140" height="25" as="geometry" />
        </mxCell>
        <mxCell id="kolIQZ4a0cQggph-2vq8-19" value="+ Username: string" style="text;html=1;strokeColor=none;fillColor=none;align=left;verticalAlign=middle;spacingLeft=4;spacingRight=4;overflow=hidden;rotatable=0;points=[[0,0.5],[1,0.5]];portConstraint=eastwest;" vertex="1" parent="kolIQZ4a0cQggph-2vq8-17">
          <mxGeometry y="54" width="140" height="25" as="geometry" />
        </mxCell>
        <mxCell id="UunK_3PYM5uhHIef-83r-2" value="- Token: string" style="text;html=1;strokeColor=none;fillColor=none;align=left;verticalAlign=middle;spacingLeft=4;spacingRight=4;overflow=hidden;rotatable=0;points=[[0,0.5],[1,0.5]];portConstraint=eastwest;" vertex="1" parent="kolIQZ4a0cQggph-2vq8-17">
          <mxGeometry y="79" width="140" height="25" as="geometry" />
        </mxCell>
        <mxCell id="kolIQZ4a0cQggph-2vq8-21" value="+ createDialogue()&lt;br&gt;+ openDialogue()&lt;br&gt;+ setContext()&lt;br&gt;+ sendMessage()" style="text;html=1;strokeColor=default;fillColor=none;align=left;verticalAlign=middle;spacingLeft=4;spacingRight=4;overflow=hidden;rotatable=0;points=[[0,0.5],[1,0.5]];portConstraint=eastwest;" vertex="1" parent="kolIQZ4a0cQggph-2vq8-17">
          <mxGeometry y="104" width="140" height="66" as="geometry" />
        </mxCell>
        <mxCell id="kolIQZ4a0cQggph-2vq8-22" style="edgeStyle=orthogonalEdgeStyle;rounded=0;orthogonalLoop=1;jettySize=auto;html=1;entryX=0;entryY=0.5;entryDx=0;entryDy=0;endArrow=none;endFill=0;" edge="1" parent="1" target="kolIQZ4a0cQggph-2vq8-5">
          <mxGeometry relative="1" as="geometry">
            <mxPoint x="220" y="480.51724137931035" as="sourcePoint" />
          </mxGeometry>
        </mxCell>
        <mxCell id="kolIQZ4a0cQggph-2vq8-24" value="1" style="edgeLabel;html=1;align=center;verticalAlign=middle;resizable=0;points=[];" vertex="1" connectable="0" parent="kolIQZ4a0cQggph-2vq8-22">
          <mxGeometry x="-0.8513" y="-2" relative="1" as="geometry">
            <mxPoint y="8" as="offset" />
          </mxGeometry>
        </mxCell>
        <mxCell id="kolIQZ4a0cQggph-2vq8-25" value="*" style="edgeLabel;html=1;align=center;verticalAlign=middle;resizable=0;points=[];" vertex="1" connectable="0" parent="kolIQZ4a0cQggph-2vq8-22">
          <mxGeometry x="0.8513" y="-1" relative="1" as="geometry">
            <mxPoint x="7" y="9" as="offset" />
          </mxGeometry>
        </mxCell>
        <mxCell id="kolIQZ4a0cQggph-2vq8-26" style="edgeStyle=orthogonalEdgeStyle;rounded=0;orthogonalLoop=1;jettySize=auto;html=1;entryX=0.25;entryY=0;entryDx=0;entryDy=0;endArrow=none;endFill=0;" edge="1" parent="1" source="kolIQZ4a0cQggph-2vq8-27" target="kolIQZ4a0cQggph-2vq8-2">
          <mxGeometry relative="1" as="geometry" />
        </mxCell>
        <mxCell id="kolIQZ4a0cQggph-2vq8-27" value="Environement" style="swimlane;fontStyle=1;align=center;verticalAlign=middle;childLayout=stackLayout;horizontal=1;startSize=29;horizontalStack=0;resizeParent=1;resizeParentMax=0;resizeLast=0;collapsible=0;marginBottom=0;html=1;" vertex="1" parent="1">
          <mxGeometry x="298" y="30" width="140" height="79" as="geometry" />
        </mxCell>
        <mxCell id="kolIQZ4a0cQggph-2vq8-28" value="+ id : int" style="text;html=1;strokeColor=none;fillColor=none;align=left;verticalAlign=middle;spacingLeft=4;spacingRight=4;overflow=hidden;rotatable=0;points=[[0,0.5],[1,0.5]];portConstraint=eastwest;" vertex="1" parent="kolIQZ4a0cQggph-2vq8-27">
          <mxGeometry y="29" width="140" height="25" as="geometry" />
        </mxCell>
        <mxCell id="kolIQZ4a0cQggph-2vq8-29" value="+ name : str" style="text;html=1;strokeColor=none;fillColor=none;align=left;verticalAlign=middle;spacingLeft=4;spacingRight=4;overflow=hidden;rotatable=0;points=[[0,0.5],[1,0.5]];portConstraint=eastwest;" vertex="1" parent="kolIQZ4a0cQggph-2vq8-27">
          <mxGeometry y="54" width="140" height="25" as="geometry" />
        </mxCell>
        <mxCell id="kolIQZ4a0cQggph-2vq8-30" style="edgeStyle=orthogonalEdgeStyle;rounded=0;orthogonalLoop=1;jettySize=auto;html=1;entryX=0.75;entryY=0;entryDx=0;entryDy=0;endArrow=none;endFill=0;" edge="1" parent="1" source="kolIQZ4a0cQggph-2vq8-31" target="kolIQZ4a0cQggph-2vq8-2">
          <mxGeometry relative="1" as="geometry" />
        </mxCell>
        <mxCell id="kolIQZ4a0cQggph-2vq8-31" value="History" style="swimlane;fontStyle=1;align=center;verticalAlign=middle;childLayout=stackLayout;horizontal=1;startSize=29;horizontalStack=0;resizeParent=1;resizeParentMax=0;resizeLast=0;collapsible=0;marginBottom=0;html=1;" vertex="1" parent="1">
          <mxGeometry x="490" y="30" width="140" height="54" as="geometry" />
        </mxCell>
        <mxCell id="kolIQZ4a0cQggph-2vq8-32" value="+ messages: str" style="text;html=1;strokeColor=none;fillColor=none;align=left;verticalAlign=middle;spacingLeft=4;spacingRight=4;overflow=hidden;rotatable=0;points=[[0,0.5],[1,0.5]];portConstraint=eastwest;" vertex="1" parent="kolIQZ4a0cQggph-2vq8-31">
          <mxGeometry y="29" width="140" height="25" as="geometry" />
        </mxCell>
        <mxCell id="kolIQZ4a0cQggph-2vq8-33" value="Message" style="swimlane;fontStyle=1;align=center;verticalAlign=middle;childLayout=stackLayout;horizontal=1;startSize=29;horizontalStack=0;resizeParent=1;resizeParentMax=0;resizeLast=0;collapsible=0;marginBottom=0;html=1;" vertex="1" parent="1">
          <mxGeometry x="630" y="506" width="140" height="79" as="geometry" />
        </mxCell>
        <mxCell id="kolIQZ4a0cQggph-2vq8-34" value="+ :Dialogue" style="text;html=1;strokeColor=none;fillColor=none;align=left;verticalAlign=middle;spacingLeft=4;spacingRight=4;overflow=hidden;rotatable=0;points=[[0,0.5],[1,0.5]];portConstraint=eastwest;" vertex="1" parent="kolIQZ4a0cQggph-2vq8-33">
          <mxGeometry y="29" width="140" height="25" as="geometry" />
        </mxCell>
        <mxCell id="kolIQZ4a0cQggph-2vq8-35" value="+ readDialogue()" style="text;html=1;strokeColor=default;fillColor=none;align=left;verticalAlign=middle;spacingLeft=4;spacingRight=4;overflow=hidden;rotatable=0;points=[[0,0.5],[1,0.5]];portConstraint=eastwest;" vertex="1" parent="kolIQZ4a0cQggph-2vq8-33">
          <mxGeometry y="54" width="140" height="25" as="geometry" />
        </mxCell>
        <mxCell id="5GnD2kiRcE-ZmtlTLCr0-2" style="edgeStyle=orthogonalEdgeStyle;rounded=0;orthogonalLoop=1;jettySize=auto;html=1;exitX=0;exitY=0.5;exitDx=0;exitDy=0;entryX=1;entryY=0.5;entryDx=0;entryDy=0;endArrow=none;endFill=0;" edge="1" parent="1" source="kolIQZ4a0cQggph-2vq8-34" target="kolIQZ4a0cQggph-2vq8-7">
          <mxGeometry relative="1" as="geometry" />
        </mxCell>
      </root>
    </mxGraphModel>
  </diagram>
  <diagram id="HGP0Nb6uy2wvjcCNEJVO" name="Sequence">
    <mxGraphModel dx="1105" dy="569" grid="1" gridSize="10" guides="1" tooltips="1" connect="1" arrows="1" fold="1" page="1" pageScale="1" pageWidth="827" pageHeight="1169" math="0" shadow="0">
      <root>
        <mxCell id="0" />
        <mxCell id="1" parent="0" />
        <mxCell id="SV3yMvkGyDbwdrieVW20-6" value="User" style="shape=umlLifeline;perimeter=lifelinePerimeter;whiteSpace=wrap;html=1;container=1;collapsible=0;recursiveResize=0;outlineConnect=0;" parent="1" vertex="1">
          <mxGeometry x="130" y="120" width="145" height="410" as="geometry" />
        </mxCell>
        <mxCell id="nKtaipRf6KzZBgk8uosp-1" value="" style="html=1;points=[];perimeter=orthogonalPerimeter;" parent="SV3yMvkGyDbwdrieVW20-6" vertex="1">
          <mxGeometry x="67.5" y="60" width="10" height="90" as="geometry" />
        </mxCell>
        <mxCell id="iGK3Z8s7VCykVR-eBn6I-1" value="" style="html=1;points=[];perimeter=orthogonalPerimeter;" vertex="1" parent="SV3yMvkGyDbwdrieVW20-6">
          <mxGeometry x="67.5" y="290" width="10" height="40" as="geometry" />
        </mxCell>
        <mxCell id="SV3yMvkGyDbwdrieVW20-8" value="OpenAi" style="shape=umlLifeline;perimeter=lifelinePerimeter;whiteSpace=wrap;html=1;container=1;collapsible=0;recursiveResize=0;outlineConnect=0;" parent="1" vertex="1">
          <mxGeometry x="580" y="120" width="100" height="410" as="geometry" />
        </mxCell>
        <mxCell id="Sz9ZwHbh4LIFfezmB5ut-4" value="" style="rounded=0;whiteSpace=wrap;html=1;" vertex="1" parent="SV3yMvkGyDbwdrieVW20-8">
          <mxGeometry x="45" y="360" width="10" height="30" as="geometry" />
        </mxCell>
        <mxCell id="SV3yMvkGyDbwdrieVW20-9" value="Api" style="shape=umlLifeline;perimeter=lifelinePerimeter;whiteSpace=wrap;html=1;container=1;collapsible=0;recursiveResize=0;outlineConnect=0;" parent="1" vertex="1">
          <mxGeometry x="310" y="120" width="100" height="410" as="geometry" />
        </mxCell>
        <mxCell id="6_mrQK1oCPybolanwwRE-5" value="" style="html=1;points=[];perimeter=orthogonalPerimeter;" parent="SV3yMvkGyDbwdrieVW20-9" vertex="1">
          <mxGeometry x="45" y="60" width="10" height="90" as="geometry" />
        </mxCell>
        <mxCell id="6_mrQK1oCPybolanwwRE-8" value="" style="endArrow=classic;html=1;rounded=0;exitX=0.821;exitY=-0.009;exitDx=0;exitDy=0;exitPerimeter=0;" parent="SV3yMvkGyDbwdrieVW20-9" source="6_mrQK1oCPybolanwwRE-5" target="SV3yMvkGyDbwdrieVW20-9" edge="1">
          <mxGeometry width="50" height="50" relative="1" as="geometry">
            <mxPoint x="110" y="90" as="sourcePoint" />
            <mxPoint x="20" y="80" as="targetPoint" />
            <Array as="points">
              <mxPoint x="80" y="59" />
              <mxPoint x="80" y="100" />
            </Array>
          </mxGeometry>
        </mxCell>
        <mxCell id="6_mrQK1oCPybolanwwRE-10" value="Search / Create token" style="edgeLabel;html=1;align=center;verticalAlign=middle;resizable=0;points=[];fontSize=8;" parent="6_mrQK1oCPybolanwwRE-8" vertex="1" connectable="0">
          <mxGeometry x="0.1805" relative="1" as="geometry">
            <mxPoint x="24" y="-10" as="offset" />
          </mxGeometry>
        </mxCell>
        <mxCell id="6_mrQK1oCPybolanwwRE-40" value="" style="html=1;points=[];perimeter=orthogonalPerimeter;" parent="SV3yMvkGyDbwdrieVW20-9" vertex="1">
          <mxGeometry x="45" y="180" width="10" height="110" as="geometry" />
        </mxCell>
        <mxCell id="6_mrQK1oCPybolanwwRE-52" style="edgeStyle=none;rounded=0;orthogonalLoop=1;jettySize=auto;html=1;fontSize=8;startArrow=none;startFill=0;endArrow=classic;endFill=1;" parent="SV3yMvkGyDbwdrieVW20-9" edge="1">
          <mxGeometry relative="1" as="geometry">
            <mxPoint x="-110" y="330" as="sourcePoint" />
            <mxPoint x="45" y="330" as="targetPoint" />
          </mxGeometry>
        </mxCell>
        <mxCell id="6_mrQK1oCPybolanwwRE-53" value="Send message" style="edgeLabel;html=1;align=center;verticalAlign=middle;resizable=0;points=[];fontSize=8;" parent="6_mrQK1oCPybolanwwRE-52" vertex="1" connectable="0">
          <mxGeometry x="-0.3302" y="3" relative="1" as="geometry">
            <mxPoint x="20" y="3" as="offset" />
          </mxGeometry>
        </mxCell>
        <mxCell id="6_mrQK1oCPybolanwwRE-48" style="edgeStyle=none;rounded=0;orthogonalLoop=1;jettySize=auto;html=1;fontSize=8;startArrow=none;startFill=0;endArrow=classic;endFill=1;" parent="SV3yMvkGyDbwdrieVW20-9" edge="1" target="SV3yMvkGyDbwdrieVW20-6">
          <mxGeometry relative="1" as="geometry">
            <mxPoint x="55" y="290" as="sourcePoint" />
            <mxPoint x="-70" y="290" as="targetPoint" />
          </mxGeometry>
        </mxCell>
        <mxCell id="6_mrQK1oCPybolanwwRE-49" value="wait message" style="edgeLabel;html=1;align=center;verticalAlign=middle;resizable=0;points=[];fontSize=8;" parent="6_mrQK1oCPybolanwwRE-48" vertex="1" connectable="0">
          <mxGeometry x="0.3855" y="1" relative="1" as="geometry">
            <mxPoint x="2" y="-11" as="offset" />
          </mxGeometry>
        </mxCell>
        <mxCell id="nKtaipRf6KzZBgk8uosp-2" value="&lt;font style=&quot;font-size: 8px;&quot;&gt;ask session&lt;/font&gt;" style="html=1;verticalAlign=bottom;endArrow=none;entryX=1;entryY=0;rounded=0;startArrow=classic;startFill=1;endFill=0;" parent="1" source="SV3yMvkGyDbwdrieVW20-9" target="nKtaipRf6KzZBgk8uosp-1" edge="1">
          <mxGeometry relative="1" as="geometry">
            <mxPoint x="290" y="180" as="sourcePoint" />
          </mxGeometry>
        </mxCell>
        <mxCell id="31S7UJbdd6TsjMPDou0h-2" style="edgeStyle=none;rounded=0;orthogonalLoop=1;jettySize=auto;html=1;entryX=-0.179;entryY=0.008;entryDx=0;entryDy=0;entryPerimeter=0;startArrow=none;startFill=0;endArrow=classic;endFill=1;" parent="1" source="31S7UJbdd6TsjMPDou0h-1" target="nKtaipRf6KzZBgk8uosp-1" edge="1">
          <mxGeometry relative="1" as="geometry" />
        </mxCell>
        <mxCell id="31S7UJbdd6TsjMPDou0h-3" value="session connect" style="edgeLabel;html=1;align=center;verticalAlign=middle;resizable=0;points=[];" parent="31S7UJbdd6TsjMPDou0h-2" vertex="1" connectable="0">
          <mxGeometry x="-0.5814" y="-1" relative="1" as="geometry">
            <mxPoint x="32" y="-11" as="offset" />
          </mxGeometry>
        </mxCell>
        <mxCell id="31S7UJbdd6TsjMPDou0h-1" value="" style="shape=waypoint;sketch=0;fillStyle=solid;size=6;pointerEvents=1;points=[];fillColor=none;resizable=0;rotatable=0;perimeter=centerPerimeter;snapToPoint=1;" parent="1" vertex="1">
          <mxGeometry x="60" y="170" width="20" height="20" as="geometry" />
        </mxCell>
        <mxCell id="nKtaipRf6KzZBgk8uosp-3" value="&lt;font style=&quot;font-size: 8px;&quot;&gt;return all sessions&lt;/font&gt;" style="html=1;verticalAlign=bottom;endArrow=none;dashed=1;endSize=8;exitX=1;exitY=0.95;rounded=0;startArrow=classic;startFill=1;endFill=0;entryX=0.105;entryY=0.95;entryDx=0;entryDy=0;entryPerimeter=0;" parent="1" source="nKtaipRf6KzZBgk8uosp-1" target="6_mrQK1oCPybolanwwRE-5" edge="1">
          <mxGeometry relative="1" as="geometry">
            <mxPoint x="360" y="266" as="targetPoint" />
          </mxGeometry>
        </mxCell>
        <mxCell id="6_mrQK1oCPybolanwwRE-14" value="" style="edgeStyle=none;rounded=0;orthogonalLoop=1;jettySize=auto;html=1;fontSize=8;startArrow=classic;startFill=1;endArrow=none;endFill=0;" parent="1" target="SV3yMvkGyDbwdrieVW20-6" edge="1">
          <mxGeometry relative="1" as="geometry">
            <mxPoint x="355" y="300" as="sourcePoint" />
            <mxPoint x="207.5000000000001" y="300" as="targetPoint" />
            <Array as="points">
              <mxPoint x="260" y="300" />
            </Array>
          </mxGeometry>
        </mxCell>
        <mxCell id="6_mrQK1oCPybolanwwRE-15" value="open session" style="edgeLabel;html=1;align=center;verticalAlign=middle;resizable=0;points=[];fontSize=8;" parent="6_mrQK1oCPybolanwwRE-14" vertex="1" connectable="0">
          <mxGeometry x="0.1407" relative="1" as="geometry">
            <mxPoint x="4" y="-10" as="offset" />
          </mxGeometry>
        </mxCell>
        <mxCell id="6_mrQK1oCPybolanwwRE-25" value="Chat" style="shape=umlLifeline;perimeter=lifelinePerimeter;whiteSpace=wrap;html=1;container=1;collapsible=0;recursiveResize=0;outlineConnect=0;" parent="1" vertex="1">
          <mxGeometry x="440" y="120" width="100" height="410" as="geometry" />
        </mxCell>
        <mxCell id="6_mrQK1oCPybolanwwRE-41" value="" style="group" parent="6_mrQK1oCPybolanwwRE-25" vertex="1" connectable="0">
          <mxGeometry x="45" y="80" width="35" height="191" as="geometry" />
        </mxCell>
        <mxCell id="6_mrQK1oCPybolanwwRE-29" value="" style="group" parent="6_mrQK1oCPybolanwwRE-41" vertex="1" connectable="0">
          <mxGeometry y="161" width="35" height="30" as="geometry" />
        </mxCell>
        <mxCell id="6_mrQK1oCPybolanwwRE-30" value="" style="html=1;points=[];perimeter=orthogonalPerimeter;" parent="6_mrQK1oCPybolanwwRE-29" vertex="1">
          <mxGeometry width="10" height="30" as="geometry" />
        </mxCell>
        <mxCell id="6_mrQK1oCPybolanwwRE-31" value="" style="endArrow=classic;html=1;rounded=0;fontSize=8;entryX=0.957;entryY=0.527;entryDx=0;entryDy=0;entryPerimeter=0;exitX=1.033;exitY=0.004;exitDx=0;exitDy=0;exitPerimeter=0;" parent="6_mrQK1oCPybolanwwRE-29" source="6_mrQK1oCPybolanwwRE-30" target="6_mrQK1oCPybolanwwRE-30" edge="1">
          <mxGeometry width="50" height="50" relative="1" as="geometry">
            <mxPoint x="15" as="sourcePoint" />
            <mxPoint x="65" y="20" as="targetPoint" />
            <Array as="points">
              <mxPoint x="35" />
              <mxPoint x="35" y="16" />
            </Array>
          </mxGeometry>
        </mxCell>
        <mxCell id="6_mrQK1oCPybolanwwRE-32" value="load previous messages" style="edgeLabel;html=1;align=center;verticalAlign=middle;resizable=0;points=[];fontSize=8;" parent="6_mrQK1oCPybolanwwRE-31" vertex="1" connectable="0">
          <mxGeometry x="-0.1451" relative="1" as="geometry">
            <mxPoint x="24" y="-3" as="offset" />
          </mxGeometry>
        </mxCell>
        <mxCell id="6_mrQK1oCPybolanwwRE-33" value="" style="group" parent="6_mrQK1oCPybolanwwRE-41" vertex="1" connectable="0">
          <mxGeometry y="111" width="35" height="30" as="geometry" />
        </mxCell>
        <mxCell id="6_mrQK1oCPybolanwwRE-34" value="" style="html=1;points=[];perimeter=orthogonalPerimeter;" parent="6_mrQK1oCPybolanwwRE-33" vertex="1">
          <mxGeometry width="10" height="30" as="geometry" />
        </mxCell>
        <mxCell id="6_mrQK1oCPybolanwwRE-35" value="" style="endArrow=classic;html=1;rounded=0;fontSize=8;entryX=0.957;entryY=0.527;entryDx=0;entryDy=0;entryPerimeter=0;exitX=1.033;exitY=0.004;exitDx=0;exitDy=0;exitPerimeter=0;" parent="6_mrQK1oCPybolanwwRE-33" source="6_mrQK1oCPybolanwwRE-34" target="6_mrQK1oCPybolanwwRE-34" edge="1">
          <mxGeometry width="50" height="50" relative="1" as="geometry">
            <mxPoint x="15" as="sourcePoint" />
            <mxPoint x="65" y="20" as="targetPoint" />
            <Array as="points">
              <mxPoint x="35" />
              <mxPoint x="35" y="16" />
            </Array>
          </mxGeometry>
        </mxCell>
        <mxCell id="6_mrQK1oCPybolanwwRE-36" value="open chat" style="edgeLabel;html=1;align=center;verticalAlign=middle;resizable=0;points=[];fontSize=8;" parent="6_mrQK1oCPybolanwwRE-35" vertex="1" connectable="0">
          <mxGeometry x="-0.1451" relative="1" as="geometry">
            <mxPoint x="20" y="-4" as="offset" />
          </mxGeometry>
        </mxCell>
        <mxCell id="6_mrQK1oCPybolanwwRE-44" value="" style="group" parent="6_mrQK1oCPybolanwwRE-25" vertex="1" connectable="0">
          <mxGeometry x="45" y="280" width="35" height="50" as="geometry" />
        </mxCell>
        <mxCell id="6_mrQK1oCPybolanwwRE-45" value="" style="html=1;points=[];perimeter=orthogonalPerimeter;" parent="6_mrQK1oCPybolanwwRE-44" vertex="1">
          <mxGeometry width="10" height="50" as="geometry" />
        </mxCell>
        <mxCell id="iGK3Z8s7VCykVR-eBn6I-2" style="edgeStyle=none;rounded=0;orthogonalLoop=1;jettySize=auto;html=1;fontSize=8;startArrow=none;startFill=0;endArrow=classic;endFill=1;" edge="1" parent="6_mrQK1oCPybolanwwRE-25" target="SV3yMvkGyDbwdrieVW20-8">
          <mxGeometry relative="1" as="geometry">
            <mxPoint x="-74.99999999999989" y="360" as="sourcePoint" />
            <mxPoint x="80" y="360" as="targetPoint" />
          </mxGeometry>
        </mxCell>
        <mxCell id="iGK3Z8s7VCykVR-eBn6I-3" value="Wait response with context datas" style="edgeLabel;html=1;align=center;verticalAlign=middle;resizable=0;points=[];fontSize=8;" vertex="1" connectable="0" parent="iGK3Z8s7VCykVR-eBn6I-2">
          <mxGeometry x="-0.3302" y="3" relative="1" as="geometry">
            <mxPoint x="20" y="3" as="offset" />
          </mxGeometry>
        </mxCell>
        <mxCell id="6_mrQK1oCPybolanwwRE-43" style="edgeStyle=none;rounded=0;orthogonalLoop=1;jettySize=auto;html=1;entryX=-0.019;entryY=-0.002;entryDx=0;entryDy=0;entryPerimeter=0;fontSize=8;startArrow=none;startFill=0;endArrow=classic;endFill=1;" parent="1" source="6_mrQK1oCPybolanwwRE-40" target="6_mrQK1oCPybolanwwRE-34" edge="1">
          <mxGeometry relative="1" as="geometry" />
        </mxCell>
        <mxCell id="Sz9ZwHbh4LIFfezmB5ut-1" value="" style="html=1;points=[];perimeter=orthogonalPerimeter;" vertex="1" parent="1">
          <mxGeometry x="355" y="450" width="10" height="30" as="geometry" />
        </mxCell>
        <mxCell id="iGK3Z8s7VCykVR-eBn6I-5" value="" style="endArrow=classic;html=1;rounded=0;fontSize=8;entryX=0.957;entryY=0.527;entryDx=0;entryDy=0;entryPerimeter=0;exitX=1.033;exitY=0.004;exitDx=0;exitDy=0;exitPerimeter=0;" edge="1" parent="1">
          <mxGeometry width="50" height="50" relative="1" as="geometry">
            <mxPoint x="635.3299999999999" y="481.12" as="sourcePoint" />
            <mxPoint x="634.5699999999999" y="496.81000000000006" as="targetPoint" />
            <Array as="points">
              <mxPoint x="660" y="481" />
              <mxPoint x="660" y="497" />
            </Array>
          </mxGeometry>
        </mxCell>
        <mxCell id="iGK3Z8s7VCykVR-eBn6I-6" value="Api working..." style="edgeLabel;html=1;align=center;verticalAlign=middle;resizable=0;points=[];fontSize=8;" vertex="1" connectable="0" parent="iGK3Z8s7VCykVR-eBn6I-5">
          <mxGeometry x="-0.1451" relative="1" as="geometry">
            <mxPoint x="24" y="-3" as="offset" />
          </mxGeometry>
        </mxCell>
      </root>
    </mxGraphModel>
  </diagram>
  <diagram id="pBG1Gk6Femqrv4NQs8Qt" name="MCD">
    <mxGraphModel dx="1050" dy="541" grid="1" gridSize="10" guides="1" tooltips="1" connect="1" arrows="1" fold="1" page="1" pageScale="1" pageWidth="827" pageHeight="1169" math="0" shadow="0">
      <root>
        <mxCell id="0" />
        <mxCell id="1" parent="0" />
        <mxCell id="2eM0H86Vne5FV3Vc_Uvb-9" value="Messages" style="swimlane;fontStyle=1;align=center;verticalAlign=middle;childLayout=stackLayout;horizontal=1;startSize=29;horizontalStack=0;resizeParent=1;resizeParentMax=0;resizeLast=0;collapsible=0;marginBottom=0;html=1;" parent="1" vertex="1">
          <mxGeometry x="630" y="210" width="140" height="129" as="geometry" />
        </mxCell>
        <mxCell id="2eM0H86Vne5FV3Vc_Uvb-10" value="id" style="text;html=1;strokeColor=none;fillColor=none;align=left;verticalAlign=middle;spacingLeft=4;spacingRight=4;overflow=hidden;rotatable=0;points=[[0,0.5],[1,0.5]];portConstraint=eastwest;" parent="2eM0H86Vne5FV3Vc_Uvb-9" vertex="1">
          <mxGeometry y="29" width="140" height="25" as="geometry" />
        </mxCell>
        <mxCell id="2eM0H86Vne5FV3Vc_Uvb-15" value="sender" style="text;html=1;strokeColor=none;fillColor=none;align=left;verticalAlign=middle;spacingLeft=4;spacingRight=4;overflow=hidden;rotatable=0;points=[[0,0.5],[1,0.5]];portConstraint=eastwest;" parent="2eM0H86Vne5FV3Vc_Uvb-9" vertex="1">
          <mxGeometry y="54" width="140" height="25" as="geometry" />
        </mxCell>
        <mxCell id="C2dso_m-dEq1krVLGvCW-14" value="send_date" style="text;html=1;strokeColor=none;fillColor=none;align=left;verticalAlign=middle;spacingLeft=4;spacingRight=4;overflow=hidden;rotatable=0;points=[[0,0.5],[1,0.5]];portConstraint=eastwest;" parent="2eM0H86Vne5FV3Vc_Uvb-9" vertex="1">
          <mxGeometry y="79" width="140" height="25" as="geometry" />
        </mxCell>
        <mxCell id="C2dso_m-dEq1krVLGvCW-17" value="content" style="text;html=1;strokeColor=none;fillColor=none;align=left;verticalAlign=middle;spacingLeft=4;spacingRight=4;overflow=hidden;rotatable=0;points=[[0,0.5],[1,0.5]];portConstraint=eastwest;" parent="2eM0H86Vne5FV3Vc_Uvb-9" vertex="1">
          <mxGeometry y="104" width="140" height="25" as="geometry" />
        </mxCell>
        <mxCell id="2eM0H86Vne5FV3Vc_Uvb-11" value="User" style="swimlane;fontStyle=1;align=center;verticalAlign=middle;childLayout=stackLayout;horizontal=1;startSize=29;horizontalStack=0;resizeParent=1;resizeParentMax=0;resizeLast=0;collapsible=0;marginBottom=0;html=1;" parent="1" vertex="1">
          <mxGeometry x="30" y="390" width="140" height="104" as="geometry" />
        </mxCell>
        <mxCell id="2eM0H86Vne5FV3Vc_Uvb-12" value="id" style="text;html=1;strokeColor=none;fillColor=none;align=left;verticalAlign=middle;spacingLeft=4;spacingRight=4;overflow=hidden;rotatable=0;points=[[0,0.5],[1,0.5]];portConstraint=eastwest;" parent="2eM0H86Vne5FV3Vc_Uvb-11" vertex="1">
          <mxGeometry y="29" width="140" height="25" as="geometry" />
        </mxCell>
        <mxCell id="2eM0H86Vne5FV3Vc_Uvb-18" value="name" style="text;html=1;strokeColor=none;fillColor=none;align=left;verticalAlign=middle;spacingLeft=4;spacingRight=4;overflow=hidden;rotatable=0;points=[[0,0.5],[1,0.5]];portConstraint=eastwest;" parent="2eM0H86Vne5FV3Vc_Uvb-11" vertex="1">
          <mxGeometry y="54" width="140" height="25" as="geometry" />
        </mxCell>
        <mxCell id="2eM0H86Vne5FV3Vc_Uvb-20" value="token" style="text;html=1;strokeColor=none;fillColor=none;align=left;verticalAlign=middle;spacingLeft=4;spacingRight=4;overflow=hidden;rotatable=0;points=[[0,0.5],[1,0.5]];portConstraint=eastwest;" parent="2eM0H86Vne5FV3Vc_Uvb-11" vertex="1">
          <mxGeometry y="79" width="140" height="25" as="geometry" />
        </mxCell>
        <mxCell id="VsA4rRMLAQOPMWZmfxPN-1" value="Session" style="swimlane;fontStyle=1;align=center;verticalAlign=middle;childLayout=stackLayout;horizontal=1;startSize=29;horizontalStack=0;resizeParent=1;resizeParentMax=0;resizeLast=0;collapsible=0;marginBottom=0;html=1;" parent="1" vertex="1">
          <mxGeometry x="380" y="402.5" width="140" height="129" as="geometry" />
        </mxCell>
        <mxCell id="VsA4rRMLAQOPMWZmfxPN-2" value="id" style="text;html=1;strokeColor=none;fillColor=none;align=left;verticalAlign=middle;spacingLeft=4;spacingRight=4;overflow=hidden;rotatable=0;points=[[0,0.5],[1,0.5]];portConstraint=eastwest;" parent="VsA4rRMLAQOPMWZmfxPN-1" vertex="1">
          <mxGeometry y="29" width="140" height="25" as="geometry" />
        </mxCell>
        <mxCell id="VsA4rRMLAQOPMWZmfxPN-3" value="name" style="text;html=1;strokeColor=none;fillColor=none;align=left;verticalAlign=middle;spacingLeft=4;spacingRight=4;overflow=hidden;rotatable=0;points=[[0,0.5],[1,0.5]];portConstraint=eastwest;" parent="VsA4rRMLAQOPMWZmfxPN-1" vertex="1">
          <mxGeometry y="54" width="140" height="25" as="geometry" />
        </mxCell>
        <mxCell id="C2dso_m-dEq1krVLGvCW-18" value="creation_date" style="text;html=1;strokeColor=none;fillColor=none;align=left;verticalAlign=middle;spacingLeft=4;spacingRight=4;overflow=hidden;rotatable=0;points=[[0,0.5],[1,0.5]];portConstraint=eastwest;" parent="VsA4rRMLAQOPMWZmfxPN-1" vertex="1">
          <mxGeometry y="79" width="140" height="25" as="geometry" />
        </mxCell>
        <mxCell id="C2dso_m-dEq1krVLGvCW-19" value="update_date" style="text;html=1;strokeColor=none;fillColor=none;align=left;verticalAlign=middle;spacingLeft=4;spacingRight=4;overflow=hidden;rotatable=0;points=[[0,0.5],[1,0.5]];portConstraint=eastwest;" parent="VsA4rRMLAQOPMWZmfxPN-1" vertex="1">
          <mxGeometry y="104" width="140" height="25" as="geometry" />
        </mxCell>
        <mxCell id="C2dso_m-dEq1krVLGvCW-3" style="edgeStyle=none;rounded=0;orthogonalLoop=1;jettySize=auto;html=1;fontSize=8;startArrow=none;startFill=0;endArrow=none;endFill=0;exitX=1;exitY=0.5;exitDx=0;exitDy=0;" parent="1" source="O4-DLUfbr78zZDJ9yeI4-8" target="VsA4rRMLAQOPMWZmfxPN-2" edge="1">
          <mxGeometry relative="1" as="geometry">
            <mxPoint x="310" y="444" as="sourcePoint" />
          </mxGeometry>
        </mxCell>
        <mxCell id="C2dso_m-dEq1krVLGvCW-6" value="1,1" style="edgeLabel;html=1;align=center;verticalAlign=middle;resizable=0;points=[];fontSize=8;" parent="C2dso_m-dEq1krVLGvCW-3" vertex="1" connectable="0">
          <mxGeometry x="0.5865" y="1" relative="1" as="geometry">
            <mxPoint x="5" y="-11" as="offset" />
          </mxGeometry>
        </mxCell>
        <mxCell id="C2dso_m-dEq1krVLGvCW-4" value="" style="edgeStyle=none;rounded=0;orthogonalLoop=1;jettySize=auto;html=1;fontSize=8;startArrow=none;startFill=0;endArrow=none;endFill=0;entryX=1;entryY=0.5;entryDx=0;entryDy=0;exitX=0;exitY=0.5;exitDx=0;exitDy=0;" parent="1" source="O4-DLUfbr78zZDJ9yeI4-8" target="2eM0H86Vne5FV3Vc_Uvb-11" edge="1">
          <mxGeometry relative="1" as="geometry">
            <mxPoint x="248.01035616712375" y="443.4313826819656" as="sourcePoint" />
          </mxGeometry>
        </mxCell>
        <mxCell id="C2dso_m-dEq1krVLGvCW-5" value="1,N" style="edgeLabel;html=1;align=center;verticalAlign=middle;resizable=0;points=[];fontSize=8;" parent="C2dso_m-dEq1krVLGvCW-4" vertex="1" connectable="0">
          <mxGeometry x="0.3603" relative="1" as="geometry">
            <mxPoint x="-17" y="-10" as="offset" />
          </mxGeometry>
        </mxCell>
        <mxCell id="C2dso_m-dEq1krVLGvCW-12" style="edgeStyle=none;rounded=0;orthogonalLoop=1;jettySize=auto;html=1;entryX=1;entryY=0.5;entryDx=0;entryDy=0;fontSize=8;startArrow=none;startFill=0;endArrow=none;endFill=0;" parent="1" source="C2dso_m-dEq1krVLGvCW-9" target="rIrrtr8eQ3bjHf-4Hr74-3" edge="1">
          <mxGeometry relative="1" as="geometry">
            <mxPoint x="200" y="289" as="targetPoint" />
          </mxGeometry>
        </mxCell>
        <mxCell id="O4-DLUfbr78zZDJ9yeI4-9" value="1,N" style="edgeLabel;html=1;align=center;verticalAlign=middle;resizable=0;points=[];fontSize=8;" parent="C2dso_m-dEq1krVLGvCW-12" vertex="1" connectable="0">
          <mxGeometry x="0.7717" y="-1" relative="1" as="geometry">
            <mxPoint as="offset" />
          </mxGeometry>
        </mxCell>
        <mxCell id="C2dso_m-dEq1krVLGvCW-13" style="edgeStyle=none;rounded=0;orthogonalLoop=1;jettySize=auto;html=1;entryX=0;entryY=0.5;entryDx=0;entryDy=0;fontSize=8;startArrow=none;startFill=0;endArrow=none;endFill=0;" parent="1" source="C2dso_m-dEq1krVLGvCW-9" target="2eM0H86Vne5FV3Vc_Uvb-15" edge="1">
          <mxGeometry relative="1" as="geometry" />
        </mxCell>
        <mxCell id="O4-DLUfbr78zZDJ9yeI4-10" value="1,1" style="edgeLabel;html=1;align=center;verticalAlign=middle;resizable=0;points=[];fontSize=8;" parent="C2dso_m-dEq1krVLGvCW-13" vertex="1" connectable="0">
          <mxGeometry x="0.2414" y="1" relative="1" as="geometry">
            <mxPoint x="20" as="offset" />
          </mxGeometry>
        </mxCell>
        <mxCell id="C2dso_m-dEq1krVLGvCW-9" value="History" style="ellipse;whiteSpace=wrap;html=1;fontSize=8;" parent="1" vertex="1">
          <mxGeometry x="370" y="252.5" width="62" height="44" as="geometry" />
        </mxCell>
        <mxCell id="O4-DLUfbr78zZDJ9yeI4-8" value="open" style="ellipse;whiteSpace=wrap;html=1;fontSize=8;" parent="1" vertex="1">
          <mxGeometry x="260" y="420" width="62" height="44" as="geometry" />
        </mxCell>
        <mxCell id="rIrrtr8eQ3bjHf-4Hr74-1" value="Chat" style="swimlane;fontStyle=1;align=center;verticalAlign=middle;childLayout=stackLayout;horizontal=1;startSize=29;horizontalStack=0;resizeParent=1;resizeParentMax=0;resizeLast=0;collapsible=0;marginBottom=0;html=1;" parent="1" vertex="1">
          <mxGeometry x="30" y="210" width="140" height="129" as="geometry" />
        </mxCell>
        <mxCell id="rIrrtr8eQ3bjHf-4Hr74-2" value="id" style="text;html=1;strokeColor=none;fillColor=none;align=left;verticalAlign=middle;spacingLeft=4;spacingRight=4;overflow=hidden;rotatable=0;points=[[0,0.5],[1,0.5]];portConstraint=eastwest;" parent="rIrrtr8eQ3bjHf-4Hr74-1" vertex="1">
          <mxGeometry y="29" width="140" height="25" as="geometry" />
        </mxCell>
        <mxCell id="rIrrtr8eQ3bjHf-4Hr74-3" value="name" style="text;html=1;strokeColor=none;fillColor=none;align=left;verticalAlign=middle;spacingLeft=4;spacingRight=4;overflow=hidden;rotatable=0;points=[[0,0.5],[1,0.5]];portConstraint=eastwest;" parent="rIrrtr8eQ3bjHf-4Hr74-1" vertex="1">
          <mxGeometry y="54" width="140" height="25" as="geometry" />
        </mxCell>
        <mxCell id="rIrrtr8eQ3bjHf-4Hr74-4" value="creation_date" style="text;html=1;strokeColor=none;fillColor=none;align=left;verticalAlign=middle;spacingLeft=4;spacingRight=4;overflow=hidden;rotatable=0;points=[[0,0.5],[1,0.5]];portConstraint=eastwest;" parent="rIrrtr8eQ3bjHf-4Hr74-1" vertex="1">
          <mxGeometry y="79" width="140" height="25" as="geometry" />
        </mxCell>
        <mxCell id="rIrrtr8eQ3bjHf-4Hr74-5" value="update_date" style="text;html=1;strokeColor=none;fillColor=none;align=left;verticalAlign=middle;spacingLeft=4;spacingRight=4;overflow=hidden;rotatable=0;points=[[0,0.5],[1,0.5]];portConstraint=eastwest;" parent="rIrrtr8eQ3bjHf-4Hr74-1" vertex="1">
          <mxGeometry y="104" width="140" height="25" as="geometry" />
        </mxCell>
        <mxCell id="UmiBdF7-QaVxaLnOFP16-6" style="edgeStyle=none;rounded=0;orthogonalLoop=1;jettySize=auto;html=1;entryX=0.607;entryY=-0.005;entryDx=0;entryDy=0;entryPerimeter=0;fontSize=8;startArrow=none;startFill=0;endArrow=none;endFill=0;" parent="1" source="rIrrtr8eQ3bjHf-4Hr74-6" target="rIrrtr8eQ3bjHf-4Hr74-1" edge="1">
          <mxGeometry relative="1" as="geometry" />
        </mxCell>
        <mxCell id="rIrrtr8eQ3bjHf-4Hr74-6" value="Character" style="swimlane;fontStyle=1;align=center;verticalAlign=middle;childLayout=stackLayout;horizontal=1;startSize=29;horizontalStack=0;resizeParent=1;resizeParentMax=0;resizeLast=0;collapsible=0;marginBottom=0;html=1;" parent="1" vertex="1">
          <mxGeometry x="30" width="170" height="104" as="geometry" />
        </mxCell>
        <mxCell id="rIrrtr8eQ3bjHf-4Hr74-7" value="id" style="text;html=1;strokeColor=none;fillColor=none;align=left;verticalAlign=middle;spacingLeft=4;spacingRight=4;overflow=hidden;rotatable=0;points=[[0,0.5],[1,0.5]];portConstraint=eastwest;" parent="rIrrtr8eQ3bjHf-4Hr74-6" vertex="1">
          <mxGeometry y="29" width="170" height="25" as="geometry" />
        </mxCell>
        <mxCell id="rIrrtr8eQ3bjHf-4Hr74-8" value="character" style="text;html=1;strokeColor=none;fillColor=none;align=left;verticalAlign=middle;spacingLeft=4;spacingRight=4;overflow=hidden;rotatable=0;points=[[0,0.5],[1,0.5]];portConstraint=eastwest;" parent="rIrrtr8eQ3bjHf-4Hr74-6" vertex="1">
          <mxGeometry y="54" width="170" height="25" as="geometry" />
        </mxCell>
        <mxCell id="rIrrtr8eQ3bjHf-4Hr74-9" value="environement" style="text;html=1;strokeColor=none;fillColor=none;align=left;verticalAlign=middle;spacingLeft=4;spacingRight=4;overflow=hidden;rotatable=0;points=[[0,0.5],[1,0.5]];portConstraint=eastwest;" parent="rIrrtr8eQ3bjHf-4Hr74-6" vertex="1">
          <mxGeometry y="79" width="170" height="25" as="geometry" />
        </mxCell>
        <mxCell id="UmiBdF7-QaVxaLnOFP16-1" style="edgeStyle=none;rounded=0;orthogonalLoop=1;jettySize=auto;html=1;entryX=0.999;entryY=0.992;entryDx=0;entryDy=0;entryPerimeter=0;fontSize=8;startArrow=none;startFill=0;endArrow=none;endFill=0;" parent="1" source="UmiBdF7-QaVxaLnOFP16-2" target="rIrrtr8eQ3bjHf-4Hr74-7" edge="1">
          <mxGeometry relative="1" as="geometry" />
        </mxCell>
        <mxCell id="UmiBdF7-QaVxaLnOFP16-5" value="1,1" style="edgeLabel;html=1;align=center;verticalAlign=middle;resizable=0;points=[];fontSize=8;" parent="UmiBdF7-QaVxaLnOFP16-1" vertex="1" connectable="0">
          <mxGeometry x="0.4314" y="1" relative="1" as="geometry">
            <mxPoint y="-13" as="offset" />
          </mxGeometry>
        </mxCell>
        <mxCell id="rIrrtr8eQ3bjHf-4Hr74-10" value="Environement" style="swimlane;fontStyle=1;align=center;verticalAlign=middle;childLayout=stackLayout;horizontal=1;startSize=29;horizontalStack=0;resizeParent=1;resizeParentMax=0;resizeLast=0;collapsible=0;marginBottom=0;html=1;" parent="1" vertex="1">
          <mxGeometry x="365" width="170" height="104" as="geometry" />
        </mxCell>
        <mxCell id="rIrrtr8eQ3bjHf-4Hr74-11" value="id" style="text;html=1;strokeColor=none;fillColor=none;align=left;verticalAlign=middle;spacingLeft=4;spacingRight=4;overflow=hidden;rotatable=0;points=[[0,0.5],[1,0.5]];portConstraint=eastwest;" parent="rIrrtr8eQ3bjHf-4Hr74-10" vertex="1">
          <mxGeometry y="29" width="170" height="25" as="geometry" />
        </mxCell>
        <mxCell id="rIrrtr8eQ3bjHf-4Hr74-12" value="character" style="text;html=1;strokeColor=none;fillColor=none;align=left;verticalAlign=middle;spacingLeft=4;spacingRight=4;overflow=hidden;rotatable=0;points=[[0,0.5],[1,0.5]];portConstraint=eastwest;" parent="rIrrtr8eQ3bjHf-4Hr74-10" vertex="1">
          <mxGeometry y="54" width="170" height="25" as="geometry" />
        </mxCell>
        <mxCell id="rIrrtr8eQ3bjHf-4Hr74-13" value="environement" style="text;html=1;strokeColor=none;fillColor=none;align=left;verticalAlign=middle;spacingLeft=4;spacingRight=4;overflow=hidden;rotatable=0;points=[[0,0.5],[1,0.5]];portConstraint=eastwest;" parent="rIrrtr8eQ3bjHf-4Hr74-10" vertex="1">
          <mxGeometry y="79" width="170" height="25" as="geometry" />
        </mxCell>
        <mxCell id="UmiBdF7-QaVxaLnOFP16-3" value="" style="edgeStyle=none;rounded=0;orthogonalLoop=1;jettySize=auto;html=1;entryX=1;entryY=0.5;entryDx=0;entryDy=0;fontSize=8;startArrow=none;startFill=0;endArrow=none;endFill=0;" parent="1" source="rIrrtr8eQ3bjHf-4Hr74-10" target="UmiBdF7-QaVxaLnOFP16-2" edge="1">
          <mxGeometry relative="1" as="geometry">
            <mxPoint x="365" y="52.6115841227965" as="sourcePoint" />
            <mxPoint x="199.82999999999993" y="53.80000000000001" as="targetPoint" />
          </mxGeometry>
        </mxCell>
        <mxCell id="UmiBdF7-QaVxaLnOFP16-4" value="0,N" style="edgeLabel;html=1;align=center;verticalAlign=middle;resizable=0;points=[];fontSize=8;" parent="UmiBdF7-QaVxaLnOFP16-3" vertex="1" connectable="0">
          <mxGeometry x="-0.4202" y="-1" relative="1" as="geometry">
            <mxPoint y="-9" as="offset" />
          </mxGeometry>
        </mxCell>
        <mxCell id="UmiBdF7-QaVxaLnOFP16-2" value="Belong to" style="ellipse;whiteSpace=wrap;html=1;fontSize=8;" parent="1" vertex="1">
          <mxGeometry x="235" y="23" width="87" height="58" as="geometry" />
        </mxCell>
      </root>
    </mxGraphModel>
  </diagram>
  <diagram id="ulo2EsrzKBZxcBGEqNr5" name="State Diagram">
    <mxGraphModel dx="1483" dy="338" grid="1" gridSize="10" guides="1" tooltips="1" connect="1" arrows="1" fold="1" page="1" pageScale="1" pageWidth="827" pageHeight="1169" math="0" shadow="0">
      <root>
        <mxCell id="0" />
        <mxCell id="1" parent="0" />
        <mxCell id="WzDPcdn3YsFap7K2rpdk-6" style="edgeStyle=orthogonalEdgeStyle;rounded=0;orthogonalLoop=1;jettySize=auto;html=1;entryX=0.457;entryY=0;entryDx=0;entryDy=0;entryPerimeter=0;" edge="1" parent="1" source="WzDPcdn3YsFap7K2rpdk-1" target="WzDPcdn3YsFap7K2rpdk-2">
          <mxGeometry relative="1" as="geometry" />
        </mxCell>
        <mxCell id="WzDPcdn3YsFap7K2rpdk-1" value="" style="ellipse;fillColor=strokeColor;" vertex="1" parent="1">
          <mxGeometry x="123" y="520" width="30" height="30" as="geometry" />
        </mxCell>
        <mxCell id="WzDPcdn3YsFap7K2rpdk-9" style="edgeStyle=orthogonalEdgeStyle;rounded=0;orthogonalLoop=1;jettySize=auto;html=1;entryX=0.5;entryY=0;entryDx=0;entryDy=0;" edge="1" parent="1" source="WzDPcdn3YsFap7K2rpdk-2" target="WzDPcdn3YsFap7K2rpdk-8">
          <mxGeometry relative="1" as="geometry" />
        </mxCell>
        <mxCell id="WzDPcdn3YsFap7K2rpdk-10" value="Verification" style="edgeLabel;html=1;align=center;verticalAlign=middle;resizable=0;points=[];" vertex="1" connectable="0" parent="WzDPcdn3YsFap7K2rpdk-9">
          <mxGeometry x="-0.2867" y="1" relative="1" as="geometry">
            <mxPoint as="offset" />
          </mxGeometry>
        </mxCell>
        <mxCell id="WzDPcdn3YsFap7K2rpdk-2" value="GET Credentials" style="html=1;align=center;verticalAlign=top;rounded=1;absoluteArcSize=1;arcSize=10;dashed=0;" vertex="1" parent="1">
          <mxGeometry x="74" y="600" width="140" height="25" as="geometry" />
        </mxCell>
        <mxCell id="WzDPcdn3YsFap7K2rpdk-41" style="edgeStyle=orthogonalEdgeStyle;rounded=0;orthogonalLoop=1;jettySize=auto;html=1;entryX=0;entryY=0.5;entryDx=0;entryDy=0;" edge="1" parent="1" source="WzDPcdn3YsFap7K2rpdk-7" target="WzDPcdn3YsFap7K2rpdk-2">
          <mxGeometry relative="1" as="geometry">
            <Array as="points">
              <mxPoint x="-210" y="762" />
              <mxPoint x="-210" y="612" />
            </Array>
          </mxGeometry>
        </mxCell>
        <mxCell id="WzDPcdn3YsFap7K2rpdk-7" value="Throw error" style="html=1;align=center;verticalAlign=top;rounded=1;absoluteArcSize=1;arcSize=10;dashed=0;" vertex="1" parent="1">
          <mxGeometry x="-126" y="750" width="140" height="25" as="geometry" />
        </mxCell>
        <mxCell id="WzDPcdn3YsFap7K2rpdk-11" style="edgeStyle=orthogonalEdgeStyle;rounded=0;orthogonalLoop=1;jettySize=auto;html=1;" edge="1" parent="1" source="WzDPcdn3YsFap7K2rpdk-8" target="WzDPcdn3YsFap7K2rpdk-7">
          <mxGeometry relative="1" as="geometry" />
        </mxCell>
        <mxCell id="WzDPcdn3YsFap7K2rpdk-12" value="no" style="edgeLabel;html=1;align=center;verticalAlign=middle;resizable=0;points=[];" vertex="1" connectable="0" parent="WzDPcdn3YsFap7K2rpdk-11">
          <mxGeometry x="-0.6919" y="-1" relative="1" as="geometry">
            <mxPoint as="offset" />
          </mxGeometry>
        </mxCell>
        <mxCell id="WzDPcdn3YsFap7K2rpdk-16" style="edgeStyle=orthogonalEdgeStyle;rounded=0;orthogonalLoop=1;jettySize=auto;html=1;entryX=0.5;entryY=0;entryDx=0;entryDy=0;" edge="1" parent="1" source="WzDPcdn3YsFap7K2rpdk-8" target="WzDPcdn3YsFap7K2rpdk-13">
          <mxGeometry relative="1" as="geometry" />
        </mxCell>
        <mxCell id="WzDPcdn3YsFap7K2rpdk-8" value="correct ?" style="rhombus;" vertex="1" parent="1">
          <mxGeometry x="99" y="685" width="90" height="60" as="geometry" />
        </mxCell>
        <mxCell id="WzDPcdn3YsFap7K2rpdk-15" value="" style="edgeStyle=orthogonalEdgeStyle;rounded=0;orthogonalLoop=1;jettySize=auto;html=1;" edge="1" parent="1" source="WzDPcdn3YsFap7K2rpdk-13" target="WzDPcdn3YsFap7K2rpdk-14">
          <mxGeometry relative="1" as="geometry" />
        </mxCell>
        <mxCell id="WzDPcdn3YsFap7K2rpdk-13" value="Generate token" style="html=1;align=center;verticalAlign=top;rounded=1;absoluteArcSize=1;arcSize=10;dashed=0;" vertex="1" parent="1">
          <mxGeometry x="204" y="740" width="140" height="25" as="geometry" />
        </mxCell>
        <mxCell id="WzDPcdn3YsFap7K2rpdk-22" style="edgeStyle=orthogonalEdgeStyle;rounded=0;orthogonalLoop=1;jettySize=auto;html=1;entryX=0.5;entryY=0;entryDx=0;entryDy=0;" edge="1" parent="1" source="WzDPcdn3YsFap7K2rpdk-14" target="WzDPcdn3YsFap7K2rpdk-21">
          <mxGeometry relative="1" as="geometry" />
        </mxCell>
        <mxCell id="WzDPcdn3YsFap7K2rpdk-23" value="send authorisation token" style="edgeLabel;html=1;align=center;verticalAlign=middle;resizable=0;points=[];" vertex="1" connectable="0" parent="WzDPcdn3YsFap7K2rpdk-22">
          <mxGeometry x="-0.4417" relative="1" as="geometry">
            <mxPoint as="offset" />
          </mxGeometry>
        </mxCell>
        <mxCell id="WzDPcdn3YsFap7K2rpdk-14" value="Set expiration state" style="html=1;align=center;verticalAlign=top;rounded=1;absoluteArcSize=1;arcSize=10;dashed=0;fillColor=rgb(255, 255, 255);" vertex="1" parent="1">
          <mxGeometry x="199" y="810" width="150" height="25" as="geometry" />
        </mxCell>
        <mxCell id="WzDPcdn3YsFap7K2rpdk-21" value="" style="ellipse;html=1;shape=endState;fillColor=strokeColor;" vertex="1" parent="1">
          <mxGeometry x="259" y="870" width="30" height="30" as="geometry" />
        </mxCell>
        <mxCell id="WzDPcdn3YsFap7K2rpdk-24" style="edgeStyle=orthogonalEdgeStyle;rounded=0;orthogonalLoop=1;jettySize=auto;html=1;entryX=0.457;entryY=0;entryDx=0;entryDy=0;entryPerimeter=0;" edge="1" parent="1" source="WzDPcdn3YsFap7K2rpdk-25" target="WzDPcdn3YsFap7K2rpdk-28">
          <mxGeometry relative="1" as="geometry" />
        </mxCell>
        <mxCell id="WzDPcdn3YsFap7K2rpdk-25" value="" style="ellipse;fillColor=strokeColor;" vertex="1" parent="1">
          <mxGeometry x="660" y="510" width="30" height="30" as="geometry" />
        </mxCell>
        <mxCell id="WzDPcdn3YsFap7K2rpdk-45" style="edgeStyle=orthogonalEdgeStyle;rounded=0;orthogonalLoop=1;jettySize=auto;html=1;" edge="1" parent="1" source="WzDPcdn3YsFap7K2rpdk-28" target="WzDPcdn3YsFap7K2rpdk-43">
          <mxGeometry relative="1" as="geometry" />
        </mxCell>
        <mxCell id="WzDPcdn3YsFap7K2rpdk-28" value="GET auth. Token" style="html=1;align=center;verticalAlign=top;rounded=1;absoluteArcSize=1;arcSize=10;dashed=0;" vertex="1" parent="1">
          <mxGeometry x="611" y="590" width="140" height="25" as="geometry" />
        </mxCell>
        <mxCell id="WzDPcdn3YsFap7K2rpdk-42" style="edgeStyle=orthogonalEdgeStyle;rounded=0;orthogonalLoop=1;jettySize=auto;html=1;entryX=0;entryY=0.5;entryDx=0;entryDy=0;" edge="1" parent="1" source="WzDPcdn3YsFap7K2rpdk-29" target="WzDPcdn3YsFap7K2rpdk-28">
          <mxGeometry relative="1" as="geometry">
            <Array as="points">
              <mxPoint x="400" y="912" />
              <mxPoint x="400" y="602" />
            </Array>
          </mxGeometry>
        </mxCell>
        <mxCell id="WzDPcdn3YsFap7K2rpdk-29" value="Throw error" style="html=1;align=center;verticalAlign=top;rounded=1;absoluteArcSize=1;arcSize=10;dashed=0;" vertex="1" parent="1">
          <mxGeometry x="414" y="900" width="140" height="25" as="geometry" />
        </mxCell>
        <mxCell id="WzDPcdn3YsFap7K2rpdk-30" style="edgeStyle=orthogonalEdgeStyle;rounded=0;orthogonalLoop=1;jettySize=auto;html=1;" edge="1" parent="1" source="WzDPcdn3YsFap7K2rpdk-33" target="WzDPcdn3YsFap7K2rpdk-29">
          <mxGeometry relative="1" as="geometry" />
        </mxCell>
        <mxCell id="WzDPcdn3YsFap7K2rpdk-31" value="no" style="edgeLabel;html=1;align=center;verticalAlign=middle;resizable=0;points=[];" vertex="1" connectable="0" parent="WzDPcdn3YsFap7K2rpdk-30">
          <mxGeometry x="-0.6919" y="-1" relative="1" as="geometry">
            <mxPoint as="offset" />
          </mxGeometry>
        </mxCell>
        <mxCell id="WzDPcdn3YsFap7K2rpdk-32" style="edgeStyle=orthogonalEdgeStyle;rounded=0;orthogonalLoop=1;jettySize=auto;html=1;entryX=0.5;entryY=0;entryDx=0;entryDy=0;" edge="1" parent="1" source="WzDPcdn3YsFap7K2rpdk-33" target="WzDPcdn3YsFap7K2rpdk-35">
          <mxGeometry relative="1" as="geometry" />
        </mxCell>
        <mxCell id="WzDPcdn3YsFap7K2rpdk-33" value="correct ?" style="rhombus;" vertex="1" parent="1">
          <mxGeometry x="636" y="835" width="90" height="60" as="geometry" />
        </mxCell>
        <mxCell id="WzDPcdn3YsFap7K2rpdk-34" value="" style="edgeStyle=orthogonalEdgeStyle;rounded=0;orthogonalLoop=1;jettySize=auto;html=1;entryX=0.5;entryY=0;entryDx=0;entryDy=0;" edge="1" parent="1" source="WzDPcdn3YsFap7K2rpdk-35" target="WzDPcdn3YsFap7K2rpdk-39">
          <mxGeometry relative="1" as="geometry">
            <mxPoint x="814" y="960" as="targetPoint" />
          </mxGeometry>
        </mxCell>
        <mxCell id="WzDPcdn3YsFap7K2rpdk-51" value="send Token access" style="edgeLabel;html=1;align=center;verticalAlign=middle;resizable=0;points=[];" vertex="1" connectable="0" parent="WzDPcdn3YsFap7K2rpdk-34">
          <mxGeometry x="-0.1857" y="-1" relative="1" as="geometry">
            <mxPoint as="offset" />
          </mxGeometry>
        </mxCell>
        <mxCell id="WzDPcdn3YsFap7K2rpdk-35" value="Generate token" style="html=1;align=center;verticalAlign=top;rounded=1;absoluteArcSize=1;arcSize=10;dashed=0;" vertex="1" parent="1">
          <mxGeometry x="744" y="890" width="140" height="25" as="geometry" />
        </mxCell>
        <mxCell id="WzDPcdn3YsFap7K2rpdk-39" value="" style="ellipse;html=1;shape=endState;fillColor=strokeColor;" vertex="1" parent="1">
          <mxGeometry x="799" y="1020" width="30" height="30" as="geometry" />
        </mxCell>
        <mxCell id="WzDPcdn3YsFap7K2rpdk-44" style="edgeStyle=orthogonalEdgeStyle;rounded=0;orthogonalLoop=1;jettySize=auto;html=1;entryX=0.5;entryY=0;entryDx=0;entryDy=0;" edge="1" parent="1" source="WzDPcdn3YsFap7K2rpdk-43" target="WzDPcdn3YsFap7K2rpdk-33">
          <mxGeometry relative="1" as="geometry" />
        </mxCell>
        <mxCell id="WzDPcdn3YsFap7K2rpdk-49" value="valid" style="edgeLabel;html=1;align=center;verticalAlign=middle;resizable=0;points=[];" vertex="1" connectable="0" parent="WzDPcdn3YsFap7K2rpdk-44">
          <mxGeometry x="-0.8925" y="1" relative="1" as="geometry">
            <mxPoint y="6" as="offset" />
          </mxGeometry>
        </mxCell>
        <mxCell id="WzDPcdn3YsFap7K2rpdk-47" style="edgeStyle=orthogonalEdgeStyle;rounded=0;orthogonalLoop=1;jettySize=auto;html=1;entryX=0.5;entryY=0;entryDx=0;entryDy=0;" edge="1" parent="1" source="WzDPcdn3YsFap7K2rpdk-43" target="WzDPcdn3YsFap7K2rpdk-46">
          <mxGeometry relative="1" as="geometry" />
        </mxCell>
        <mxCell id="WzDPcdn3YsFap7K2rpdk-48" value="expired" style="edgeLabel;html=1;align=center;verticalAlign=middle;resizable=0;points=[];" vertex="1" connectable="0" parent="WzDPcdn3YsFap7K2rpdk-47">
          <mxGeometry x="-0.7661" relative="1" as="geometry">
            <mxPoint x="-12" as="offset" />
          </mxGeometry>
        </mxCell>
        <mxCell id="WzDPcdn3YsFap7K2rpdk-43" value="check expiration" style="rhombus;" vertex="1" parent="1">
          <mxGeometry x="633" y="650" width="95" height="70" as="geometry" />
        </mxCell>
        <mxCell id="WzDPcdn3YsFap7K2rpdk-50" style="edgeStyle=orthogonalEdgeStyle;rounded=0;orthogonalLoop=1;jettySize=auto;html=1;entryX=0;entryY=0.5;entryDx=0;entryDy=0;" edge="1" parent="1" source="WzDPcdn3YsFap7K2rpdk-46" target="WzDPcdn3YsFap7K2rpdk-28">
          <mxGeometry relative="1" as="geometry">
            <Array as="points">
              <mxPoint x="400" y="732" />
              <mxPoint x="400" y="602" />
            </Array>
          </mxGeometry>
        </mxCell>
        <mxCell id="WzDPcdn3YsFap7K2rpdk-46" value="Throw error" style="html=1;align=center;verticalAlign=top;rounded=1;absoluteArcSize=1;arcSize=10;dashed=0;" vertex="1" parent="1">
          <mxGeometry x="424" y="720" width="140" height="25" as="geometry" />
        </mxCell>
      </root>
    </mxGraphModel>
  </diagram>
</mxfile>
